# xmcd CD database file
#
# Track frame offsets:
#	183
#	16760
#	28020
#	43853
#	52943
#	69278
#	85145
#	97795
#	106858
#	116990
#	125410
#	139035
#	158308
#	169245
#	189770
#	201945
#	214295
#	227145
#	237883
#	246533
#
# Disc length: 3502 seconds
#
# Revision: 3
# Processed by: cddbd v1.5.2PL0 Copyright (c) Steve Scherf et al.
# Submitted via: CDex 1.51
#
DISCID=060dac14
DTITLE=Various Artist - Country Heroes
DYEAR=1990
DGENRE=Country
TTITLE0=Marie Laveaux/Bobby Bare
TTITLE1=It's A Cheatin' Situation/Moe Bandy
TTITLE2=Old Dogs, Children And Watermelon Wine/Tom T. Hall
TTITLE3=A Satisfied Mind/Porter Wagoner
TTITLE4=Redneck Girl/Bellamy Brothers
TTITLE5=Angel In Disguise/Earl Thomas Conley
TTITLE6=It's Four In The Morning/Faron Young
TTITLE7=We're Over/Johnny Rodriguez
TTITLE8=The Race Is On/George Jones
TTITLE9=Burning Memories/Mel Tillis
TTITLE10=I Loved 'em Every One/T.G. Sheppard
TTITLE11=Mr. Bojangles/Nitty Gritty Dirt Band
TTITLE12=Talk To Me/Mickey Gilley
TTITLE13=Big Boss Man/Charlie Rich
TTITLE14=Fourteen Carat Mind/Gene Watson
TTITLE15=Take Me To The Country/Mel McDaniel
TTITLE16=Wandering Eyes/Ronnie McDowell
TTITLE17=Crazy/Eddie Raven
TTITLE18=Ring On Her Finger, Time On Her Hands/Lee Greenwood
TTITLE19=Headed For A Heartache/Gary Morris
EXTD=Input by Bill (whall@netcomuk.co.uk) YEAR: 1990
EXTT0=
EXTT1=
EXTT2=
EXTT3=
EXTT4=
EXTT5=
EXTT6=
EXTT7=
EXTT8=
EXTT9=
EXTT10=
EXTT11=
EXTT12=
EXTT13=
EXTT14=
EXTT15=
EXTT16=
EXTT17=
EXTT18=
EXTT19=
PLAYORDER=
